<!-- public/favicon.svg -->
<svg xmlns="http://www.w3.org/2000/svg" viewBox="0 0 64 64" fill="none">
  <circle cx="32" cy="32" r="30" fill="url(#grad)" />
  <path d="M20 22c0-3.3 2.7-6 6-6s6 2.7 6 6-2.7 6-6 6-6-2.7-6-6z" fill="white" opacity="0.9"/>
  <path d="M32 22c0-3.3 2.7-6 6-6s6 2.7 6 6-2.7 6-6 6-6-2.7-6-6z" fill="white" opacity="0.9"/>
  <path d="M16 32c0-2.8 2.2-5 5-5s5 2.2 5 5-2.2 5-5 5-5-2.2-5-5z" fill="white" opacity="0.9"/>
  <path d="M38 32c0-2.8 2.2-5 5-5s5 2.2 5 5-2.2 5-5 5-5-2.2-5-5z" fill="white" opacity="0.9"/>
  <path d="M32 48c-7 0-12-5-12-10s5-8 12-8 12 3 12 8-5 10-12 10z" fill="white" opacity="0.95"/>
  <defs>
    <linearGradient id="grad" x1="0" y1="0" x2="64" y2="64">
      <stop offset="0%" stop-color="#3b82f6"/>
      <stop offset="100%" stop-color="#8b5cf6"/>
    </linearGradient>
  </defs>
</svg>